<?xml version="1.0" encoding="UTF-8" standalone="no"?>
<!-- Created with Inkscape (http://www.inkscape.org/) -->

<svg
   width="210mm"
   height="297mm"
   viewBox="0 0 210 297"
   version="1.1"
   id="svg312"
   xml:space="preserve"
   sodipodi:docname="calix.svg"
   inkscape:version="1.2.2 (b0a8486541, 2022-12-01)"
   xmlns:inkscape="http://www.inkscape.org/namespaces/inkscape"
   xmlns:sodipodi="http://sodipodi.sourceforge.net/DTD/sodipodi-0.dtd"
   xmlns="http://www.w3.org/2000/svg"
   xmlns:svg="http://www.w3.org/2000/svg"><sodipodi:namedview
     id="namedview314"
     pagecolor="#ffffff"
     bordercolor="#000000"
     borderopacity="0.25"
     inkscape:showpageshadow="2"
     inkscape:pageopacity="0.0"
     inkscape:pagecheckerboard="0"
     inkscape:deskcolor="#d1d1d1"
     inkscape:document-units="mm"
     showgrid="false"
     inkscape:zoom="0.30586664"
     inkscape:cx="648.97564"
     inkscape:cy="737.2494"
     inkscape:window-width="1540"
     inkscape:window-height="876"
     inkscape:window-x="60"
     inkscape:window-y="0"
     inkscape:window-maximized="1"
     inkscape:current-layer="layer1" /><defs
     id="defs309" /><g
     inkscape:label="Capa 1"
     inkscape:groupmode="layer"
     id="layer1"><path
       style="fill:#ffffff;stroke:#47139c;stroke-width:7.82701;stroke-linecap:square;stroke-linejoin:miter;stroke-dasharray:none;stroke-opacity:1;paint-order:markers stroke fill"
       d="m 169.76538,155.41786 c -0.74633,-0.37703 -1.15094,-0.95861 -1.49688,-2.15164 -1.44482,-4.9825 -2.67772,-9.55673 -2.72691,-10.11706 l -0.0603,-0.68732 1.06146,-1.20282 c 0.58379,-0.66155 1.12579,-1.20281 1.20445,-1.20281 0.0786,0 1.03268,0.58897 2.12007,1.30881 l 1.9771,1.30881 -0.71212,0.65478 -0.7121,0.65479 0.37481,1.30119 c 1.06316,3.69086 2.13624,7.95146 2.13624,8.48192 0,0.83188 -0.29952,1.33162 -1.00189,1.67164 -0.76785,0.37171 -1.3997,0.36578 -2.16392,-0.0202 z m -48.38095,-0.96206 c -0.46137,-0.16579 -0.47709,-0.19442 -0.43427,-0.79061 0.0245,-0.34023 0.0543,-0.62898 0.0665,-0.64169 0.0121,-0.0127 0.36222,0.0673 0.77794,0.17773 0.95667,0.25418 1.84327,0.14502 2.1284,-0.26205 0.49281,-0.70359 0.1112,-1.33434 -1.30915,-2.16387 -0.52159,-0.30463 -1.12039,-0.77942 -1.33065,-1.05509 -0.32855,-0.43075 -0.3823,-0.62836 -0.3823,-1.40545 0,-1.06936 0.25195,-1.50866 1.10875,-1.9332 0.62019,-0.3073 1.85002,-0.36993 2.68881,-0.13695 0.49809,0.13836 0.49836,0.13886 0.42847,0.78966 -0.0841,0.78343 -0.10246,0.81034 -0.38935,0.57225 -0.13257,-0.11002 -0.56235,-0.18874 -1.04513,-0.19142 -0.94015,-0.005 -1.25202,0.24739 -1.1824,0.9577 0.0333,0.34027 0.19669,0.51198 0.93394,0.98188 1.93096,1.23068 2.41225,1.88781 2.30754,3.15059 -0.0677,0.81611 -0.46902,1.46572 -1.11556,1.80563 -0.55987,0.29436 -2.58451,0.38457 -3.25153,0.14489 z m 13.12544,-0.0445 c -1.18315,-0.61535 -1.61561,-1.58434 -1.6914,-3.78991 -0.0648,-1.88416 0.14027,-2.78874 0.81724,-3.60591 0.5451,-0.65799 1.12527,-0.9108 2.09013,-0.9108 2.04607,0 3.03512,1.41357 3.02974,4.33013 -0.003,1.64846 -0.28198,2.61415 -0.97736,3.38386 -0.27383,0.30309 -0.69144,0.58788 -0.97937,0.66785 -0.73851,0.20513 -1.81816,0.16965 -2.28898,-0.0752 z m 1.99871,-1.30143 c 0.41643,-0.41641 0.55698,-0.89745 0.64108,-2.19393 0.1393,-2.14755 -0.41585,-3.57408 -1.39087,-3.57408 -0.49428,0 -0.93266,0.37643 -1.17104,1.00556 -0.19501,0.51472 -0.18789,3.36652 0.01,3.95701 0.34828,1.03983 1.28272,1.43368 1.91095,0.80544 z m -9.65841,-2.74387 -0.0383,-4.12401 1.75815,8e-5 c 1.50347,7e-5 1.8385,0.0411 2.31286,0.28307 0.99126,0.5057 1.3753,2.01756 0.82198,3.23595 -0.41319,0.90981 -1.401,1.42726 -2.72792,1.42901 l -0.58423,5.1e-4 v 1.64958 1.64957 h -0.75211 -0.75211 z m 2.7621,-0.56424 c 0.53215,-0.18551 0.70494,-0.48299 0.70494,-1.21368 0,-0.79182 -0.35365,-1.10876 -1.23718,-1.10876 h -0.68733 v 1.23718 1.23718 h 0.39188 c 0.21553,0 0.58799,-0.0684 0.82769,-0.15192 z m 10.32744,0.56432 v -4.12394 h 1.7319 c 1.33304,0 1.84331,0.0529 2.21565,0.22956 1.26514,0.60035 1.49551,2.69121 0.3934,3.5706 l -0.46084,0.36771 0.38767,0.32619 c 0.44794,0.37692 0.60542,0.81058 0.81401,2.2417 0.0826,0.56705 0.18348,1.13924 0.22405,1.27155 0.0646,0.2105 -0.0289,0.24056 -0.74783,0.24056 h -0.82163 l -0.15368,-0.99662 c -0.25255,-1.63765 -0.38903,-2.004 -0.83185,-2.23299 -0.22017,-0.11386 -0.58895,-0.20701 -0.81951,-0.20701 h -0.41923 v 1.71831 1.71831 h -0.75606 -0.75605 z m 3.09921,-0.88727 c 0.24702,-0.24704 0.3374,-0.48638 0.3374,-0.89352 0,-0.78881 -0.35478,-1.10597 -1.23718,-1.10597 h -0.68732 v 1.16844 1.16845 h 0.62484 c 0.48013,0 0.70299,-0.0781 0.96226,-0.3374 z m 4.73627,1.50586 v -3.50535 h -0.89352 -0.89352 v -0.61859 -0.61859 h 2.61182 2.61183 v 0.61859 0.61859 h -0.96225 -0.96226 v 3.50535 3.50534 h -0.75605 -0.75605 z m -99.330135,0.34013 c -5.182795,-0.3482 -9.954349,-1.89617 -13.819514,-4.48327 -1.197254,-0.80137 -2.711676,-1.98297 -2.725086,-2.1262 -0.0086,-0.0921 4.880981,-4.52166 4.991313,-4.52166 0.03793,0 0.521494,0.34252 1.074618,0.76114 1.276791,0.96633 3.903313,2.26028 5.679474,2.79799 2.628096,0.79563 3.523641,0.90753 7.216883,0.90189 2.97196,-0.004 3.537559,-0.0417 4.811258,-0.31683 2.958924,-0.63894 5.709758,-1.80922 7.814267,-3.32439 l 1.14724,-0.82597 1.464587,1.36743 c 0.805517,0.75209 1.91694,1.82591 2.469825,2.38627 l 1.005237,1.01882 -0.952674,0.76973 c -2.785842,2.25085 -6.14921,3.89355 -9.924266,4.84707 -2.538649,0.64124 -6.998858,0.96661 -10.253162,0.74798 z m 137.241495,-0.96527 c -0.29809,-0.15742 -0.64881,-0.51185 -0.84413,-0.85309 -0.34939,-0.61036 -1.03478,-3.27573 -1.73794,-6.75859 -0.22773,-1.12799 -0.42936,-2.0651 -0.44806,-2.08247 -0.0187,-0.0174 -1.36275,-0.22857 -2.9868,-0.46931 -1.62403,-0.24075 -3.00273,-0.46859 -3.06375,-0.5063 -0.061,-0.0377 -0.52618,0.26523 -1.03366,0.67321 -0.5075,0.40798 -1.31219,1.01492 -1.78821,1.34875 -1.00945,0.70792 -0.63094,0.82397 -3.32869,-1.0206 -0.98203,-0.67146 -1.78552,-1.29297 -1.78552,-1.38111 0,-0.0882 0.24744,-0.40188 0.54985,-0.69719 0.30242,-0.29531 0.54986,-0.61405 0.54986,-0.70831 0,-0.0943 -0.28569,-0.99413 -0.63488,-1.9997 -0.34919,-1.00557 -0.95729,-2.77149 -1.35134,-3.92426 -0.39406,-1.15276 -0.74777,-2.12724 -0.78602,-2.1655 -0.0382,-0.0382 -0.24076,0.81151 -0.45001,1.88838 -0.45879,2.36109 -0.67218,2.937 -1.18683,3.20313 -0.66993,0.34644 -1.6699,0.23002 -4.71351,-0.54876 -3.55005,-0.90836 -4.42033,-1.22183 -5.00188,-1.80164 -0.58111,-0.57934 -0.61957,-1.34615 -0.0986,-1.96529 0.77509,-0.92114 1.94239,-0.90343 4.50999,0.0684 0.91929,0.34795 1.93427,0.71493 2.25553,0.8155 0.58048,0.18174 0.58541,0.18038 0.79213,-0.21937 0.1144,-0.22124 0.39977,-1.19255 0.63415,-2.15846 0.45596,-1.87903 0.62134,-2.30106 1.05582,-2.69425 0.27195,-0.24611 0.28426,-0.23519 0.77526,0.68764 0.27441,0.51575 0.65667,1.1233 0.84946,1.35013 l 0.35055,0.41238 -0.0866,-0.48112 c -0.21862,-1.21465 -0.24254,-2.20364 -0.0586,-2.42524 0.53076,-0.63953 2.25843,-1.35539 4.62202,-1.91513 0.77432,-0.18339 1.49834,-0.33342 1.6089,-0.33342 0.12512,0 0.77095,1.15472 1.71066,3.05858 0.84256,1.70706 2.02796,3.84824 2.68265,4.84562 0.64515,0.98288 1.33442,2.04823 1.53171,2.36747 l 0.35872,0.58042 -0.8154,1.34408 c -0.94041,1.55014 -1.31,2.24166 -1.23706,2.3146 0.0283,0.0283 0.69674,-0.59605 1.48543,-1.38742 0.92262,-0.92578 1.53816,-1.43888 1.72616,-1.43888 0.16068,0 1.30618,0.34332 2.54553,0.76293 1.59529,0.5401 2.36255,0.8713 2.62721,1.13407 0.30627,0.3041 0.4981,0.8431 1.06159,2.98299 0.37828,1.43651 1.00162,3.66343 1.38522,4.94872 0.75199,2.5197 0.95515,3.90255 0.65573,4.46347 -0.48528,0.90912 -1.84924,1.23275 -2.88661,0.68494 z m -27.54598,-1.12757 c -0.7572,-0.69935 -2.51711,-2.32314 -3.91087,-3.60844 -2.52647,-2.32982 -6.60246,-6.17001 -9.34127,-8.80083 -1.60195,-1.53881 -5.03979,-4.81802 -5.36111,-5.11375 -0.17961,-0.1653 0.44075,-0.82605 4.81125,-5.12442 l 5.01746,-4.93466 -2.48556,-0.007 -2.48554,-0.007 -3.81583,3.91774 c -2.0987,2.15475 -3.87733,3.91773 -3.95254,3.91773 -0.0752,0 -1.78621,-1.56588 -3.80226,-3.47973 -2.01605,-1.91385 -4.66449,-4.40368 -5.88542,-5.53295 -1.22093,-1.12927 -2.22614,-2.09961 -2.2338,-2.15631 -0.008,-0.0567 1.54748,-0.1031 3.45586,-0.1031 h 3.46978 l 2.81922,2.81676 2.81922,2.81676 2.54309,-2.81404 2.54309,-2.81403 8.10136,-0.003 8.10135,-0.003 -1.23105,1.27155 c -0.67709,0.69936 -2.68235,2.78709 -4.45614,4.63942 -1.77378,1.85234 -4.08823,4.24818 -5.14321,5.32408 -1.05496,1.07591 -1.89116,1.98472 -1.85818,2.01956 0.21726,0.22962 9.59266,9.69161 13.80154,13.92899 l 5.0861,5.12055 h -2.61488 -2.61491 l -1.37675,-1.27154 z M 70.797128,135.62298 c 0.0019,-9.13047 0.01334,-9.27213 0.855645,-10.88127 0.653933,-1.24931 2.026335,-2.54375 3.422589,-3.22816 1.759128,-0.86228 2.607865,-1.04073 4.92985,-1.03649 2.709909,0.005 4.022997,0.34921 5.683866,1.49017 0.978942,0.6725 1.778701,1.75427 2.187854,2.95931 0.302735,0.8916 0.306757,1.00725 0.345917,9.94039 l 0.03965,9.03828 h -3.369307 -3.369307 l -0.0376,-7.89422 c -0.03709,-7.78458 -0.04169,-7.89961 -0.327327,-8.28214 -0.159335,-0.21336 -0.522145,-0.47639 -0.806245,-0.58452 -0.447872,-0.17046 -0.592121,-0.17047 -1.084951,-9e-5 -0.906527,0.3134 -1.049059,0.74621 -1.049314,3.18636 l -2.11e-4,2.0276 h 1.099711 1.099717 v 3.01866 3.01866 l -1.111234,0.0399 -1.11124,0.04 0.01666,2.71493 0.01666,2.71492 h -3.7167 -3.716705 l 0.0019,-8.28223 z m 26.459876,8.18401 c -3.054467,-0.42242 -5.171508,-2.11524 -5.687678,-4.54797 -0.105165,-0.49563 -0.154566,-3.51618 -0.154566,-9.45068 v -8.72222 h 3.22493 3.224936 l 0.03984,7.59491 c 0.03856,7.34979 0.0489,7.61043 0.319449,8.07603 0.440237,0.75752 1.001102,0.96179 2.641515,0.96204 l 1.40901,2.1e-4 v 3.09296 3.09294 l -2.302525,-0.0206 c -1.266394,-0.0114 -2.488105,-0.0462 -2.714921,-0.0776 z m 7.766736,-11.31133 v -11.40954 h 3.23042 3.23041 v 11.40954 11.40955 h -3.23041 -3.23042 z m 16.76456,4.74864 6.65985,-6.66092 -1.4396,-1.48385 c -1.3861,-1.4287 -6.16316,-6.61874 -8.45125,-9.18186 -3.33735,-3.73852 -7.23782,-8.04254 -7.35293,-8.11368 -0.42916,-0.26523 0.0867,-0.34039 2.33606,-0.34039 h 2.46825 l 1.88283,1.95887 c 1.03556,1.07737 5.36539,5.42835 9.62185,9.66882 l 7.73901,7.70996 -4.22025,4.18933 c -2.32114,2.30414 -4.65327,4.6019 -5.18251,5.10616 l -0.96225,0.91683 2.47354,0.003 2.47354,0.003 4.22719,-4.22555 4.22719,-4.22553 1.61586,1.59132 c 0.88873,0.87523 3.25513,3.12634 5.25868,5.00246 2.00355,1.87613 3.95137,3.71105 4.32849,4.0776 l 0.68569,0.66645 -3.16005,-0.002 -3.16004,-0.002 -2.74929,-2.60391 c -1.51211,-1.43216 -2.78699,-2.6065 -2.83309,-2.60966 -0.0461,-0.003 -1.03583,1.02951 -2.19944,2.2948 -1.16359,1.26529 -2.26384,2.44061 -2.44499,2.61183 l -0.32937,0.31128 h -9.08641 -9.08642 z m -92.323499,5.10961 c -2.11416,-2.4251 -3.015206,-3.76299 -4.173913,-6.19754 -1.703139,-3.57847 -2.470895,-7.12533 -2.470895,-11.41499 0,-5.47373 1.489541,-10.19499 4.579435,-14.51496 0.919926,-1.28616 4.592941,-5.08619 4.916179,-5.08619 0.111833,0 1.208735,1.04871 2.43755,2.33048 l 2.234214,2.33048 -1.550745,1.55289 c -3.965792,3.97128 -5.74807,8.14137 -5.775107,13.51231 -0.02608,5.18018 1.50172,9.25555 4.883928,13.02778 l 1.100434,1.22733 -0.877875,0.77665 c -0.482834,0.42716 -1.581928,1.4107 -2.442439,2.18566 -0.860511,0.77495 -1.634704,1.40684 -1.72043,1.40419 -0.08573,-0.003 -0.598876,-0.51299 -1.140336,-1.13409 z m 18.786118,0.86314 c -3.215556,-0.37947 -6.092854,-1.38824 -8.672393,-3.04051 -1.789244,-1.14605 -1.875152,-0.84291 0.962967,-3.39784 l 2.466775,-2.22065 0.799921,0.47371 c 2.107038,1.24778 4.509264,1.80745 7.192021,1.67559 2.532966,-0.12449 4.57239,-0.7144 6.510002,-1.88302 l 0.924546,-0.55763 0.64722,0.54834 c 0.355976,0.30159 1.473363,1.37961 2.483094,2.3956 l 1.835869,1.84726 -0.461226,0.34675 c -3.320044,2.49604 -7.090802,3.74227 -11.733311,3.87787 -1.058475,0.0309 -2.388442,0.001 -2.955485,-0.0655 z m -12.312043,-6.00288 c -3.344265,-3.74756 -4.86779,-7.86841 -4.692172,-12.69145 0.135031,-3.70856 1.158484,-6.77713 3.224805,-9.66878 0.89238,-1.24882 3.259027,-3.71255 3.491739,-3.63497 0.08422,0.028 1.183313,1.08889 2.442429,2.35737 l 2.289302,2.30633 -1.180856,1.19271 c -1.870845,1.88962 -2.742475,3.45685 -3.206927,5.7662 -0.747457,3.71649 0.247898,7.30797 2.772443,10.00369 0.403114,0.43043 0.681478,0.82754 0.618592,0.88244 -0.06289,0.0549 -1.074914,0.96001 -2.248953,2.01135 -1.17404,1.05133 -2.260612,2.01902 -2.414607,2.15041 -0.27252,0.23252 -0.301745,0.21451 -1.095795,-0.6753 z m 144.690314,-8.46913 c -1.09822,-0.50472 -4.93183,-2.32018 -5.2097,-2.46712 -0.2063,-0.1091 -0.58566,-0.6849 -1.01358,-1.53844 -0.64213,-1.28088 -0.66879,-1.37511 -0.43681,-1.54473 0.38899,-0.28445 1.14016,-0.37151 1.7162,-0.19893 0.29049,0.087 1.56451,0.6827 2.83113,1.3237 1.26664,0.641 2.40065,1.16546 2.52003,1.16546 0.11939,0 0.77249,-0.56116 1.45136,-1.24703 0.67888,-0.68586 1.40137,-1.33538 1.60551,-1.44338 0.84831,-0.44872 1.8773,-0.0581 2.1681,0.82311 0.19657,0.5956 0.0858,1.01626 -0.47548,1.8057 -0.58485,0.82261 -2.62759,2.91886 -3.16185,3.24466 -0.46724,0.28494 -1.45914,0.32323 -1.99491,0.077 z m -17.04559,-4.64892 c -1.06165,-0.63572 -1.88656,-1.66879 -1.64164,-2.05588 0.1073,-0.16959 0.12563,-0.16794 0.12743,0.0114 0.003,0.23667 1.62322,1.57008 2.30463,1.89593 0.24572,0.11751 0.44676,0.26405 0.44676,0.32565 0,0.21675 -0.76149,0.10772 -1.23718,-0.17713 z m 0.62525,-1.25733 c -0.4272,-0.28169 -0.74725,-0.61933 -0.86626,-0.91381 l -0.18873,-0.46705 0.52416,0.43504 c 0.2883,0.23928 0.75482,0.6041 1.03672,0.81071 0.95755,0.70181 0.52764,0.81662 -0.50589,0.13511 z m 3.06151,0.23762 c -0.88657,-0.28385 -2.06384,-1.38743 -2.53527,-2.37655 -0.76545,-1.60599 -0.34645,-3.89169 0.92378,-5.03927 0.99442,-0.89839 1.55326,-1.10324 3.01092,-1.10366 1.24019,-4.1e-4 1.35087,0.0244 2.19943,0.49157 3.12889,1.72272 3.11479,6.04737 -0.0253,7.75642 -0.59817,0.32557 -0.92296,0.40312 -1.82877,0.43669 -0.70698,0.0262 -1.33182,-0.0329 -1.74479,-0.1652 z m 5.0812,-4.57241 c -0.0497,-0.69401 -0.16032,-1.08079 -0.43261,-1.51212 -0.54977,-0.87088 -0.67395,-0.69673 -0.19155,0.26864 0.23311,0.46651 0.45256,1.14696 0.48765,1.51211 0.0976,1.01529 0.21221,0.78964 0.13651,-0.26863 z m 3.31848,2.38703 c 0.39342,-0.41879 1.61291,-0.95212 1.91339,-0.83681 0.15741,0.0604 -0.12504,0.25227 -0.92473,0.62816 -0.63326,0.29766 -1.18507,0.5412 -1.22623,0.5412 -0.0412,0 0.0657,-0.14965 0.23757,-0.33255 z m -0.2645,-0.73292 c 0,-0.22198 0.89339,-0.98251 1.4046,-1.19573 0.56115,-0.23405 1.34605,-0.29427 1.13162,-0.0868 -0.25221,0.24399 -2.53622,1.39901 -2.53622,1.28256 z m -14.98362,-1.14181 c 0,-0.0812 0.2165,-0.61624 0.48112,-1.18898 0.26462,-0.57273 0.48113,-1.09447 0.48113,-1.15944 0,-0.0649 -0.55673,-0.1181 -1.23718,-0.1181 -0.68045,0 -1.23718,-0.0481 -1.23718,-0.10707 0,-0.0589 0.40368,-0.50716 0.89707,-0.99616 0.49338,-0.48901 0.88,-0.97649 0.85915,-1.08329 -0.0208,-0.1068 -0.67544,-0.54777 -1.45464,-0.97993 l -1.41672,-0.78574 1.07306,-0.2818 c 0.59019,-0.15499 1.40332,-0.3239 1.80697,-0.37538 0.59902,-0.0764 0.71977,-0.13512 0.65696,-0.31956 -0.0423,-0.12429 -0.26795,-0.77202 -0.50139,-1.43939 -0.23345,-0.66737 -0.40536,-1.29352 -0.38203,-1.39145 0.0299,-0.12556 0.54901,0.0358 1.76072,0.54714 l 1.7183,0.7252 0.0329,-0.84586 c 0.0181,-0.46521 0.0685,-1.11012 0.11197,-1.4331 l 0.079,-0.58727 0.36914,0.26478 c 0.20304,0.14563 0.64752,0.63939 0.98774,1.09722 0.34023,0.45785 0.6778,0.83494 0.75014,0.83798 0.0724,0.003 0.48698,-0.38109 0.92141,-0.85363 l 0.78983,-0.85914 0.006,1.05857 c 0.008,1.23572 -0.23114,2.53904 -0.42885,2.34135 -0.0726,-0.0726 -0.17488,-0.43215 -0.22736,-0.79907 l -0.0954,-0.66713 -0.58682,0.53016 c -0.32275,0.29158 -0.60384,0.50601 -0.62464,0.47651 -0.0208,-0.0295 -0.31301,-0.48458 -0.64933,-1.01128 l -0.6115,-0.95762 -0.0354,0.82016 c -0.0599,1.3878 -0.0827,1.42933 -0.70827,1.28877 -0.2967,-0.0667 -0.95986,-0.2738 -1.4737,-0.46031 -0.51383,-0.18652 -0.9563,-0.31707 -0.98325,-0.29012 -0.0709,0.0709 0.49291,1.14953 0.94918,1.81569 l 0.3915,0.57161 -0.65088,0.0767 c -0.35798,0.0421 -1.0375,0.11578 -1.51003,0.16358 -0.47253,0.0478 -0.85729,0.12724 -0.85502,0.17652 0.003,0.0493 0.48169,0.39524 1.06535,0.76879 0.58368,0.37354 1.08341,0.69473 1.11053,0.71373 0.0271,0.019 -0.3131,0.38299 -0.75604,0.80887 -0.80221,0.77126 -0.80361,0.77401 -0.35624,0.69823 0.62692,-0.10619 1.7117,0.0582 1.63018,0.24696 -0.0361,0.0837 -0.2057,0.47555 -0.3768,0.87079 -0.17111,0.39524 -0.26774,0.76199 -0.21473,0.81499 0.079,0.079 1.0851,-0.17521 1.84572,-0.46629 0.10369,-0.0397 0.17183,0.0484 0.17183,0.22204 0,0.31872 -0.33868,0.4938 -2.06196,1.06589 -0.56705,0.18826 -1.13924,0.40084 -1.27156,0.47243 -0.16057,0.0869 -0.24056,0.081 -0.24056,-0.0175 z m 15.47438,-1.79478 c 0.1553,-0.25128 2.63073,-1.80176 4.25176,-2.66307 0.83166,-0.44189 2.56321,-1.3854 3.84787,-2.0967 2.33914,-1.29512 2.98481,-1.56111 3.14812,-1.29688 0.22305,0.3609 -0.84382,1.00775 -5.82304,3.53053 -2.90834,1.47354 -5.33994,2.67917 -5.40359,2.67917 -0.0636,0 -0.0731,-0.0689 -0.0211,-0.15305 z M 58.214334,115.80687 c -1.318033,-1.039 -3.859582,-2.01795 -5.912592,-2.27741 -2.351528,-0.29717 -5.454488,0.1838 -7.354397,1.13998 l -0.868247,0.43696 -2.347314,-2.37919 c -1.291027,-1.30856 -2.363806,-2.42508 -2.383954,-2.48117 -0.05534,-0.15404 1.970526,-1.32046 3.228883,-1.85906 2.514226,-1.07614 4.72532,-1.48029 8.079835,-1.47685 2.78036,0.003 4.319836,0.23267 6.551634,0.97815 1.514782,0.50598 3.537299,1.5529 4.794596,2.48185 1.668117,1.23248 1.754648,0.89807 -0.896459,3.46446 -1.269299,1.22874 -2.345844,2.2488 -2.392323,2.26681 -0.0465,0.018 -0.27133,-0.11453 -0.499662,-0.29453 z m 114.629436,-0.10519 c -0.90071,-0.43612 -0.72668,-2.17331 0.23897,-2.38541 0.5091,-0.11181 1.0823,0.24141 1.27666,0.78672 0.15302,0.42932 0.004,1.27012 -0.27499,1.54885 -0.23847,0.23847 -0.80415,0.2612 -1.24064,0.0498 z m 1.06757,-0.71716 c 0.31469,-0.69064 -0.51355,-1.54521 -0.93671,-0.9665 -0.22594,0.309 -0.23445,0.91112 -0.016,1.12962 0.28182,0.28181 0.78955,0.19488 0.95267,-0.16312 z m 0.90723,-0.82267 c 0.0392,-0.46337 0.12127,-0.89709 0.18242,-0.96384 0.21076,-0.2301 0.52709,0.0395 0.61858,0.52713 0.1045,0.5571 -0.16321,1.09377 -0.60302,1.20878 -0.25107,0.0657 -0.26443,0.0135 -0.19798,-0.77207 z m 0.99948,0.45478 c 6e-5,-0.10865 0.1803,-0.5687 0.40053,-1.02233 0.77277,-1.59177 1.56265,-2.14501 1.06599,-0.74663 -0.26114,0.73529 -0.22056,0.95282 0.17779,0.95282 0.22509,0 0.25889,-0.14526 0.30118,-1.29469 0.0262,-0.71208 0.0924,-1.33936 0.1471,-1.39393 0.0547,-0.0546 0.34169,0.11962 0.63775,0.3871 0.29608,0.26747 0.66886,0.52775 0.82843,0.57839 0.36182,0.11484 0.36464,0.22357 0.0136,0.52413 -0.35236,0.3017 -0.39643,0.29819 -0.77998,-0.0621 l -0.31817,-0.2989 -0.002,0.67693 c -0.003,0.94078 -0.23751,1.35356 -0.80051,1.40798 -0.24894,0.0241 -0.54359,-0.0317 -0.6548,-0.12405 -0.16489,-0.13686 -0.27732,-0.0958 -0.60962,0.22253 -0.26468,0.2536 -0.40737,0.32113 -0.40731,0.19279 z m 4.05509,-3.32207 c -0.64277,-0.89707 -1.10623,-2.16815 -0.79042,-2.16772 0.11662,1.4e-4 1.19169,1.9658 1.33442,2.43985 0.14414,0.47878 -0.0898,0.36174 -0.544,-0.27213 z M 63.9215,109.92522 c -2.223631,-1.95437 -5.607085,-3.56684 -9.072286,-4.32361 -1.805273,-0.39427 -6.822086,-0.3603 -8.749307,0.0592 -2.596045,0.56512 -4.893862,1.48366 -6.822829,2.72738 -0.512693,0.33056 -0.976636,0.59183 -1.030986,0.58059 -0.05434,-0.0112 -1.141017,-1.08631 -2.41483,-2.38905 l -2.316017,-2.36863 0.872642,-0.62178 c 2.658453,-1.89421 6.572894,-3.42101 10.701348,-4.173984 1.689963,-0.308226 8.102685,-0.353758 9.897442,-0.07028 5.146108,0.812834 9.738235,2.919394 12.976969,5.952964 l 0.975675,0.91387 -0.343662,0.37175 c -0.189013,0.20446 -1.178924,1.16222 -2.199799,2.12833 l -1.856142,1.75658 z m 105.90858,-0.39932 c -0.0512,-0.0829 0.004,-0.24766 0.12245,-0.36622 0.17758,-0.17758 0.25312,-0.1844 0.42866,-0.0387 0.1172,0.0973 0.2131,0.26207 0.2131,0.36622 0,0.22605 -0.62874,0.2579 -0.76421,0.0387 z m 2.24195,-0.21903 c -0.2996,-0.0783 -0.31507,-0.43514 -0.0237,-0.54694 0.25959,-0.0996 0.67956,0.27715 0.54736,0.49104 -0.0968,0.15662 -0.1262,0.15976 -0.52364,0.0559 z m -1.89463,-1.15081 c -0.0974,-0.18204 -0.14127,-0.72474 -0.11151,-1.38006 0.0409,-0.90173 0.10069,-1.1316 0.36183,-1.39227 l 0.31279,-0.31223 -0.0387,1.63835 c -0.0396,1.67373 -0.1862,2.07808 -0.52438,1.44621 z m 2.22721,-1.04197 c 0.0285,-0.14819 0.33625,-0.35294 0.79159,-0.5267 1.18094,-0.45067 1.08623,-0.9115 -0.24121,-1.17371 -0.42893,-0.0847 -0.99072,-0.21988 -1.24842,-0.30034 l -0.46858,-0.14629 0.33111,-0.18347 c 0.43869,-0.24309 0.88696,-0.23784 1.7571,0.0206 0.89991,0.26724 1.25456,0.60882 1.25456,1.2083 0,0.67679 -0.4717,1.02387 -1.69564,1.24767 -0.45744,0.0836 -0.52102,0.0643 -0.48051,-0.14603 z"
       id="path477" /></g></svg>
